<svg xmlns="http://www.w3.org/2000/svg" xmlns:xlink="http://www.w3.org/1999/xlink" viewBox="0 0 81 71" fill="#fff"
     fill-rule="evenodd" stroke="#000" stroke-linecap="round" stroke-linejoin="round">
    <use xlink:href="#B" x=".5">
        <title>Google Cloud Platform</title>
    </use>
    <defs>
        <linearGradient id="A" x1="50%" y1="0%" x2="50%" y2="100%">
            <stop offset="0%" stop-color="#4387fd"/>
            <stop offset="100%" stop-color="#4683ea"/>
        </linearGradient>
    </defs>
    <symbol id="B" overflow="visible">
        <g stroke="none">
            <path d="M79.25 37.5q1.5-2.5 0-5L61.5 2q-1.5-2-4-2h-35q-2.5 0-4 2L.75 32.5q-1.5 2.5 0 5L18.5 68q1.5 2 4 2h35q2.5 0 4-2z"
                  fill="url(#A)"/>
            <path d="M75.203 44.453L50 19.25 32.5 20l-2.75 12.75-5.25-4.25L30.25 51l19 19h8.25q2.5 0 4-2z" fill="#000"
                  fill-opacity=".07"/>
            <circle cx="40" cy="35" r="5"/>
            <path d="M24.52 28.426L34.75 44.75h8.5l-4.125 6.75h-7.437q-1.187 0-1.9-.943l-8.43-14.38q-.713-1.178 0-2.357zm29.098-3.176H34.5L29.75 33l-4-6.67 4.04-6.888q.713-.943 1.9-.943h16.625q1.188 0 1.9.943zM41.773 51.5l9.477-16.75-4.25-7.5h7.8l3.853 6.572q.713 1.178 0 2.357l-8.43 14.38q-.713.943-1.9.943z"/>
            <rect width="500" height="500" fill-opacity="0"/>
        </g>
    </symbol>
</svg>