<?xml version="1.0" standalone="no"?>
<!DOCTYPE svg PUBLIC "-//W3C//DTD SVG 20010904//EN"
 "http://www.w3.org/TR/2001/REC-SVG-20010904/DTD/svg10.dtd">
<svg version="1.0" xmlns="http://www.w3.org/2000/svg"
 width="500.000000pt" height="500.000000pt" viewBox="0 0 500.000000 500.000000"
 preserveAspectRatio="xMidYMid meet">
<metadata>
Created by potrace 1.11, written by Peter Selinger 2001-2013
</metadata>
<g transform="translate(0.000000,500.000000) scale(0.100000,-0.100000)"
fill="#000000" stroke="none">
<path d="M1095 3832 c-27 -7 -54 -14 -60 -15 -27 -7 -95 -42 -95 -50 0 -4 -5
-5 -10 -2 -6 3 -13 -1 -16 -9 -3 -9 -11 -16 -17 -16 -17 0 -80 -73 -102 -118
-11 -23 -22 -42 -25 -42 -3 0 -7 -8 -8 -17 -2 -22 -10 -58 -12 -58 -6 0 -11
-74 -14 -225 -5 -195 -14 -255 -51 -334 -21 -45 -105 -146 -120 -146 -3 0 -18
-6 -33 -14 -56 -29 -106 -37 -262 -45 -12 -1 -15 -17 -14 -92 1 -49 4 -92 7
-95 3 -3 40 -7 84 -9 70 -3 93 -7 171 -30 12 -4 22 -12 22 -17 0 -5 4 -7 9 -4
10 7 111 -86 111 -102 0 -5 7 -15 15 -22 9 -7 13 -15 10 -18 -3 -3 -1 -10 4
-16 12 -16 32 -81 36 -119 2 -17 4 -32 5 -32 1 0 3 -74 5 -165 3 -168 10 -241
26 -272 6 -10 7 -18 3 -18 -3 0 1 -11 10 -25 9 -14 14 -25 11 -25 -5 0 4 -12
33 -45 6 -7 12 -16 12 -20 0 -28 152 -129 215 -142 30 -7 38 -9 58 -18 9 -4
84 -8 165 -9 l147 -1 1 83 c1 55 -2 82 -10 83 -6 0 -58 3 -116 5 -155 6 -222
33 -286 116 -17 22 -36 87 -40 132 -1 23 -3 41 -4 41 -1 0 -3 17 -4 38 -1 20
2 37 7 37 4 0 5 5 1 11 -10 17 -12 89 -2 95 5 3 6 10 2 15 -3 5 -8 38 -10 72
-8 113 -10 122 -51 205 -27 55 -116 156 -127 145 -3 -4 -6 1 -6 10 0 9 -3 16
-7 15 -5 -1 -28 10 -52 26 -25 16 -60 35 -78 42 -47 20 -43 45 13 68 110 45
216 142 263 241 30 62 42 114 45 207 1 29 5 59 9 65 4 6 4 14 -1 17 -10 6 -9
107 1 123 4 6 3 14 -2 17 -6 4 -6 18 -1 35 4 16 6 32 3 34 -8 9 29 127 40 127
6 0 7 3 4 7 -4 4 11 24 34 45 55 51 125 70 264 73 l110 2 0 84 0 84 -135 0
c-80 0 -155 -5 -185 -13z"/>
<path d="M3659 3842 c0 -4 -2 -17 -3 -29 -2 -13 1 -23 6 -23 5 0 6 -5 2 -11
-11 -18 -10 -83 1 -94 6 -5 53 -10 105 -10 155 1 244 -31 295 -107 44 -65 52
-119 56 -391 2 -187 33 -273 135 -374 63 -62 79 -73 170 -116 28 -14 51 -31
51 -40 0 -8 -33 -31 -78 -55 -43 -22 -76 -42 -73 -45 3 -3 -3 -8 -14 -11 -27
-9 -102 -91 -135 -146 -42 -72 -55 -140 -56 -305 -3 -227 -9 -276 -45 -342
-48 -87 -127 -122 -291 -127 -55 -2 -107 -4 -115 -5 -12 -1 -15 -17 -15 -85
l0 -83 152 2 c83 2 156 6 162 9 6 4 24 10 39 12 39 7 121 47 170 83 35 26 109
114 111 131 0 3 8 23 17 45 26 61 33 118 33 245 0 128 2 175 15 270 7 56 51
145 96 193 34 38 104 83 145 93 46 12 69 16 130 20 102 8 97 1 93 105 l-3 92
-82 3 c-186 6 -296 78 -356 231 -21 53 -27 84 -31 155 -2 31 -7 61 -10 67 -4
5 -3 12 2 15 4 3 5 30 2 61 -3 31 -3 58 2 61 4 3 3 14 -2 25 -8 13 -7 19 0 19
6 0 9 4 6 9 -3 5 -8 29 -10 54 -3 26 -11 66 -17 89 -7 24 -12 46 -11 51 1 4
-2 7 -8 7 -5 0 -10 9 -10 20 0 11 -5 20 -11 20 -5 0 -8 4 -5 9 4 5 3 11 -1 13
-5 1 -23 20 -40 41 -18 21 -33 36 -33 33 0 -3 -11 6 -25 18 -33 30 -121 73
-183 87 -54 13 -332 23 -333 11z"/>
<path d="M2035 3492 c-2 -2 -20 -5 -42 -7 -33 -4 -74 -11 -108 -19 -5 -2 -18
-6 -27 -10 -9 -4 -22 -9 -30 -10 -51 -11 -174 -86 -233 -143 -52 -50 -108
-129 -140 -198 -11 -22 -20 -42 -20 -45 0 -3 -6 -21 -13 -40 -6 -19 -14 -48
-17 -65 -3 -16 -9 -43 -12 -60 -3 -16 -6 -49 -7 -72 -1 -24 -3 -43 -6 -43 -3
0 -5 -38 -5 -85 0 -47 2 -85 5 -85 3 0 6 -12 7 -27 7 -127 53 -263 128 -378
25 -38 111 -124 150 -150 136 -89 286 -127 480 -120 55 2 114 7 130 10 73 14
208 57 271 86 38 18 72 32 76 31 3 -1 6 53 6 118 -1 81 -4 120 -12 120 -6 0
-24 -13 -41 -28 -16 -15 -37 -31 -45 -35 -8 -4 -24 -13 -35 -20 -35 -22 -109
-61 -122 -64 -22 -5 -38 -10 -53 -16 -41 -15 -59 -19 -110 -24 -284 -32 -477
73 -574 313 -13 32 -27 75 -30 94 -3 19 -8 46 -11 60 -8 35 -8 217 0 264 15
91 34 157 48 175 7 8 11 17 11 20 -4 17 42 86 93 139 95 100 211 144 366 141
49 -1 118 -8 153 -15 72 -15 224 -81 224 -97 0 -6 3 -8 6 -4 6 6 17 -1 55 -35
10 -10 23 -18 28 -18 5 0 14 -7 21 -15 7 -8 16 -15 20 -15 4 0 7 55 6 121 -1
98 -4 123 -16 129 -8 4 -30 14 -48 23 -19 9 -40 17 -48 17 -8 0 -14 5 -14 11
0 5 -4 8 -8 5 -5 -3 -20 1 -35 9 -14 7 -28 11 -31 7 -3 -3 -6 0 -6 5 0 6 -8
10 -17 8 -10 -1 -22 0 -28 4 -5 3 -19 7 -30 8 -51 8 -71 11 -85 17 -16 6 -219
14 -225 8z"/>
<path d="M2649 2780 c-1 -3 -2 -258 -3 -567 l-1 -563 76 0 75 0 0 190 -1 190
56 62 55 61 40 -43 c62 -67 74 -81 219 -245 91 -103 144 -162 167 -187 26 -28
28 -29 122 -26 l95 3 -32 36 c-18 20 -57 65 -87 99 -80 92 -82 94 -150 170
-34 38 -70 78 -79 88 -9 11 -41 47 -71 82 -93 107 -100 115 -100 122 0 4 28
36 63 72 34 35 116 121 182 191 66 70 148 156 183 192 35 36 61 68 57 71 -3 3
-44 6 -90 7 -65 1 -85 -2 -85 -13 0 -7 -4 -10 -10 -7 -5 3 -10 2 -10 -3 0 -4
-24 -33 -52 -64 -66 -70 -135 -143 -427 -458 -24 -26 -41 -38 -42 -30 0 8 -2
137 -3 285 -2 149 -3 275 -4 280 -2 11 -141 16 -143 5z"/>
</g>
</svg>
